<?xml version="1.0" standalone="no"?><!DOCTYPE svg PUBLIC "-//W3C//DTD SVG 1.1//EN" "http://www.w3.org/Graphics/SVG/1.1/DTD/svg11.dtd"><svg t="1606901611550" class="icon" viewBox="0 0 1024 1024" version="1.1" xmlns="http://www.w3.org/2000/svg" p-id="7039" xmlns:xlink="http://www.w3.org/1999/xlink" width="200" height="200"><defs><style type="text/css"></style></defs><path d="M967.221106 696.496549C960.047076 597.702155 893.755767 514.9352 855.435713 472.126186 860.754677 459.671925 873.69864 387.583016 823.715595 338.395395 823.795831 337.215402 823.795831 336.045091 823.795831 334.901064 823.795831 140.863321 685.685367 1.199361 512.390891 0.564405 339.068748 1.200744 200.963819 140.864704 200.963819 334.901064 200.963819 336.045091 200.947219 337.215402 201.03022 338.395395 151.047175 387.583016 164.014657 459.671925 169.310104 472.126186 131.014947 514.9352 64.71534 597.702155 57.527476 696.496549 56.231281 722.467482 60.247133 760.297836 72.933796 777.111017 88.392684 797.613585 130.824045 772.994179 161.167731 707.489997 169.61029 737.836453 189.096097 784.163311 233.187472 842.965185 159.398432 859.804655 138.350829 932.583851 163.174966 972.366103 180.682589 1000.399605 220.766412 1023.455824 289.84516 1023.455824 412.749888 1023.455824 467.026838 990.424297 491.250603 967.423408 496.187763 962.406019 503.309227 959.986546 512.390891 959.967181 521.442122 959.986546 528.580185 962.406019 533.500746 967.423408 557.727278 990.424297 612.015295 1023.455824 734.892356 1023.455824 803.996001 1023.455824 844.052161 1000.399605 861.559785 972.366103 886.390835 932.583851 865.347385 859.803273 791.577708 842.965185 835.670471 784.161929 855.160428 737.836453 863.597449 707.489997 893.94944 772.994179 936.372497 797.612197 951.845217 777.111017 964.518047 760.297836 968.539438 722.467482 967.221106 696.496549L967.221106 696.496549Z" p-id="7040"></path></svg>