<?xml version="1.0" standalone="no"?><!DOCTYPE svg PUBLIC "-//W3C//DTD SVG 1.1//EN" "http://www.w3.org/Graphics/SVG/1.1/DTD/svg11.dtd"><svg t="1606902569504" class="icon" viewBox="0 0 1024 1024" version="1.1" xmlns="http://www.w3.org/2000/svg" p-id="10480" xmlns:xlink="http://www.w3.org/1999/xlink" width="200" height="200"><defs><style type="text/css"></style></defs><path d="M402.286 822.857q0 2.286 0.571 11.429t2.857 15.143T404 862.857 398.286 874t-11.715 3.714H203.714q-68 0-116.285-48.285T39.143 713.143V310.857q0-68 48.286-116.286t116.285-48.285h182.857q7.429 0 12.858 5.428t5.428 12.857q0 2.286 0.572 11.429t2.857 15.143-1.715 13.428-5.714 11.143-11.714 3.715H206.286q-37.715 0-64.572 26.857t-26.857 64.571v402.286q0 37.714 26.857 64.571t64.572 26.857H384.57l6.572 0.572 6.571 1.714 4.572 3.143 4 5.143 1.143 7.714zM932.57 512q0 14.857-10.857 25.714L610.857 848.571Q600 859.43 585.143 859.43t-25.714-10.858-10.858-25.714V658.286h-256q-14.857 0-25.714-10.857T256 621.714V402.286q0-14.857 10.857-25.715t25.714-10.857h256V201.143q0-14.857 10.858-25.714t25.714-10.858 25.714 10.858l310.857 310.857q10.857 10.857 10.857 25.714z" fill="" p-id="10481"></path></svg>